<svg aria-hidden="true" style="position: absolute; width: 0; height: 0; overflow: hidden;" version="1.1" xmlns="http://www.w3.org/2000/svg" xmlns:xlink="http://www.w3.org/1999/xlink">
<defs>
<symbol id="icon-phone" viewBox="0 0 31 32">
<path d="M22.665 16.81c-0.119-0.119-0.26-0.213-0.415-0.278s-0.322-0.098-0.49-0.098c-0.168 0-0.334 0.033-0.49 0.098s-0.296 0.159-0.415 0.278l-2.040 2.040c-0.946-0.282-2.711-0.922-3.83-2.040s-1.759-2.884-2.040-3.83l2.040-2.040c0.119-0.119 0.213-0.26 0.278-0.415s0.098-0.322 0.098-0.49c0-0.168-0.033-0.335-0.098-0.49s-0.159-0.296-0.278-0.415l-5.12-5.12c-0.119-0.119-0.26-0.213-0.415-0.278s-0.322-0.098-0.49-0.098c-0.168 0-0.335 0.033-0.49 0.098s-0.296 0.159-0.415 0.278l-3.471 3.471c-0.486 0.486-0.76 1.155-0.75 1.837 0.029 1.823 0.512 8.154 5.501 13.143s11.32 5.471 13.144 5.501h0.036c0.676 0 1.315-0.266 1.798-0.75l3.471-3.471c0.119-0.119 0.213-0.26 0.278-0.415s0.098-0.322 0.098-0.49c0-0.168-0.033-0.334-0.098-0.49s-0.159-0.296-0.278-0.415l-5.12-5.121zM22.503 25.402c-1.597-0.027-7.063-0.456-11.357-4.751-4.308-4.308-4.726-9.793-4.751-11.359l2.566-2.566 3.31 3.31-1.655 1.655c-0.15 0.15-0.261 0.336-0.322 0.54s-0.070 0.42-0.026 0.628c0.031 0.147 0.782 3.638 2.907 5.763s5.615 2.876 5.763 2.907c0.208 0.045 0.424 0.036 0.628-0.024s0.39-0.172 0.539-0.323l1.656-1.655 3.31 3.31-2.568 2.566z"></path>
</symbol>
<symbol id="icon-map" viewBox="0 0 31 32">
<path d="M15.36 18.995c2.824 0 5.12-2.296 5.12-5.12s-2.296-5.12-5.12-5.12c-2.824 0-5.12 2.296-5.12 5.12s2.296 5.12 5.12 5.12zM15.36 11.315c1.412 0 2.56 1.148 2.56 2.56s-1.148 2.56-2.56 2.56-2.56-1.148-2.56-2.56c0-1.412 1.148-2.56 2.56-2.56z"></path>
<path d="M14.618 28.997c0.217 0.155 0.476 0.238 0.742 0.238s0.526-0.083 0.742-0.238c0.389-0.275 9.535-6.879 9.498-15.122 0-5.646-4.594-10.24-10.24-10.24s-10.24 4.594-10.24 10.234c-0.037 8.25 9.108 14.853 9.498 15.128zM15.36 6.195c4.236 0 7.68 3.444 7.68 7.686 0.027 5.681-5.617 10.781-7.68 12.454-2.062-1.674-7.707-6.776-7.68-12.461 0-4.235 3.444-7.68 7.68-7.68z"></path>
</symbol>
<symbol id="icon-envelope" viewBox="0 0 31 32">
<path d="M25.6 6.195h-20.48c-1.412 0-2.56 1.148-2.56 2.56v15.36c0 1.412 1.148 2.56 2.56 2.56h20.48c1.412 0 2.56-1.148 2.56-2.56v-15.36c0-1.412-1.148-2.56-2.56-2.56zM25.6 8.755v0.654l-10.24 7.965-10.24-7.964v-0.655h20.48zM5.12 24.115v-11.464l9.454 7.354c0.224 0.176 0.501 0.272 0.786 0.272s0.562-0.096 0.786-0.272l9.454-7.354 0.003 11.464h-20.483z"></path>
</symbol>
</defs>
</svg>
