<svg width="32" height="32" viewBox="0 0 32 32" fill="none" xmlns="http://www.w3.org/2000/svg">
<rect width="32" height="32" fill="#FCEEE6"/>
<path d="M24.4199 6.0166C24.7597 5.99903 25.1266 5.98021 25.4336 6.04688C25.6062 6.08437 25.7206 6.1467 25.8193 6.29395C25.8829 6.63166 25.9391 6.96597 25.9521 7.30957C25.98 8.03795 25.973 8.77164 25.9658 9.50391C25.9626 9.83602 25.96 10.1681 25.96 10.499L25.959 16.8076C25.9592 17.0147 25.9661 17.3634 25.9736 17.7881C26 19.2747 26.0428 21.6923 25.9053 22.2246C25.8067 22.6062 25.6057 22.7816 25.2656 22.9766C24.9619 23.0141 24.645 23.0216 24.3311 23.0283C24.1667 23.0319 24.0026 23.0351 23.8418 23.043C22.3277 23.1178 20.7286 23.2683 19.3379 23.8936C18.9656 24.061 18.5918 24.2578 18.2646 24.5C18.097 24.6241 17.9096 24.7966 17.71 24.9805C17.2118 25.4393 16.6358 25.9696 16.0928 25.999C15.4671 26.0324 14.8736 25.5118 14.3262 25.0312C14.0656 24.8026 13.8154 24.5829 13.5771 24.4365C12.9994 24.0817 12.3462 23.8089 11.6982 23.6025C10.6295 23.2625 9.49717 23.0883 8.37598 23.0234C8.20684 23.0135 8.03259 23.0141 7.85742 23.0146C7.53205 23.0157 7.20236 23.0161 6.89551 22.9502C6.62814 22.8924 6.45591 22.7601 6.25488 22.5869C6.10785 22.2468 6.06205 21.8265 6.04395 21.46C6.01154 20.8044 6.01986 20.1413 6.02832 19.4805C6.03211 19.1871 6.03596 18.8941 6.03613 18.6025L6.04004 13.0225L6.03516 8.80078C6.03504 8.6165 6.02787 8.4161 6.01953 8.20898C5.99705 7.64802 5.97217 7.03689 6.09766 6.55859C6.16664 6.29579 6.32268 6.17945 6.54883 6.03906C9.03682 5.88215 11.7544 6.38514 13.9404 7.56836C14.6666 7.96136 15.3213 8.44257 15.9824 8.92871C16.3541 8.65908 16.7285 8.38926 17.1113 8.13477C19.1693 6.76664 21.6202 6.09046 24.1025 6.03027C24.2037 6.02781 24.3104 6.02226 24.4199 6.0166ZM23.1406 8.00293C22.8392 8.00535 22.5201 7.98586 22.2217 8.02441C20.1797 8.20404 17.5605 8.93123 16.1738 10.5137C16.1151 10.5813 16.0586 10.6509 16.0039 10.7217L16 23.1465C16.2267 22.9862 16.4514 22.8207 16.6816 22.665C18.5894 21.5562 20.976 21.365 23.1504 21.2129C23.1505 16.8121 23.2107 12.4029 23.1406 8.00293ZM7.86133 7.91504C7.81454 9.75325 7.82508 11.5983 7.83496 13.4404C7.83904 14.1959 7.84266 14.9518 7.84277 15.7061C7.84289 16.2601 7.8354 16.8179 7.82812 17.377V17.3818C7.81209 18.6194 7.79607 19.8635 7.85938 21.0869C10.372 21.2974 12.8953 21.5389 14.9883 23.0332C14.9759 18.9099 14.9992 14.7868 15.0586 10.6641C13.4134 8.97422 10.8389 7.97606 8.46484 7.91113C8.2639 7.90694 8.06215 7.90867 7.86133 7.91504Z" fill="#010101"/>
<path d="M24.4199 6.0166L24.4278 6.16912L24.4278 6.16912L24.4199 6.0166ZM25.4336 6.04688L25.466 5.89763L25.466 5.89763L25.4336 6.04688ZM25.8193 6.29395L25.9694 6.2657L25.9636 6.23492L25.9462 6.2089L25.8193 6.29395ZM25.9521 7.30957L25.7995 7.31538L25.7995 7.31541L25.9521 7.30957ZM25.9658 9.50391L26.1185 9.5054L26.1185 9.5054L25.9658 9.50391ZM25.96 10.499L26.1127 10.499V10.499H25.96ZM25.959 16.8076L25.8063 16.8076L25.8063 16.8078L25.959 16.8076ZM25.9736 17.7881L26.1263 17.7854L26.1263 17.7854L25.9736 17.7881ZM25.9053 22.2246L25.7574 22.1864L25.7574 22.1864L25.9053 22.2246ZM25.2656 22.9766L25.2843 23.1281L25.3149 23.1244L25.3416 23.1091L25.2656 22.9766ZM24.3311 23.0283L24.3278 22.8756L24.3278 22.8756L24.3311 23.0283ZM23.8418 23.043L23.8343 22.8904L23.8343 22.8904L23.8418 23.043ZM19.3379 23.8936L19.4005 24.0328L19.4005 24.0328L19.3379 23.8936ZM18.2646 24.5L18.3555 24.6228L18.3555 24.6227L18.2646 24.5ZM17.71 24.9805L17.6065 24.8681L17.6065 24.8681L17.71 24.9805ZM16.0928 25.999L16.1009 26.1515L16.101 26.1515L16.0928 25.999ZM14.3262 25.0312L14.4269 24.9165L14.4269 24.9165L14.3262 25.0312ZM13.5771 24.4365L13.4972 24.5667L13.4972 24.5667L13.5771 24.4365ZM11.6982 23.6025L11.7446 23.457L11.7445 23.457L11.6982 23.6025ZM8.37598 23.0234L8.36705 23.1759L8.36716 23.1759L8.37598 23.0234ZM7.85742 23.0146L7.85692 22.8619L7.85692 22.8619L7.85742 23.0146ZM6.89551 22.9502L6.86323 23.0995L6.86344 23.0995L6.89551 22.9502ZM6.25488 22.5869L6.1147 22.6475L6.12862 22.6797L6.15519 22.7026L6.25488 22.5869ZM6.04395 21.46L6.19648 21.4524L6.19648 21.4524L6.04395 21.46ZM6.02832 19.4805L5.87561 19.4785L5.87561 19.4785L6.02832 19.4805ZM6.03613 18.6025L5.88341 18.6024L5.88341 18.6024L6.03613 18.6025ZM6.04004 13.0225L6.19276 13.0226L6.19276 13.0223L6.04004 13.0225ZM6.03516 8.80078L5.88243 8.80088L5.88243 8.80096L6.03516 8.80078ZM6.01953 8.20898L5.86693 8.2151L5.86693 8.21513L6.01953 8.20898ZM6.09766 6.55859L5.94994 6.51982L5.94993 6.51984L6.09766 6.55859ZM6.54883 6.03906L6.53922 5.88664L6.5009 5.88906L6.46828 5.90931L6.54883 6.03906ZM13.9404 7.56836L13.8677 7.70267L13.8677 7.70267L13.9404 7.56836ZM15.9824 8.92871L15.892 9.05175L15.9818 9.11783L16.0721 9.05233L15.9824 8.92871ZM17.1113 8.13477L17.1959 8.26195L17.1959 8.26195L17.1113 8.13477ZM24.1025 6.03027L24.1062 6.18295L24.1063 6.18295L24.1025 6.03027ZM23.1406 8.00293L23.2933 8.0005L23.2909 7.849L23.1394 7.85021L23.1406 8.00293ZM22.2217 8.02441L22.2351 8.17668L22.2412 8.17588L22.2217 8.02441ZM16.1738 10.5137L16.059 10.413L16.0585 10.4135L16.1738 10.5137ZM16.0039 10.7217L15.883 10.6283L15.8512 10.6696L15.8512 10.7216L16.0039 10.7217ZM16 23.1465L15.8473 23.1464L15.8472 23.4416L16.0882 23.2712L16 23.1465ZM16.6816 22.665L16.6047 22.5327L16.5961 22.5385L16.6816 22.665ZM23.1504 21.2129L23.161 21.3652L23.3031 21.3553L23.3031 21.2129L23.1504 21.2129ZM7.86133 7.91504L7.85649 7.76239L7.71232 7.76696L7.70865 7.91115L7.86133 7.91504ZM7.83496 13.4404L7.68224 13.4412L7.68224 13.4413L7.83496 13.4404ZM7.84277 15.7061L7.69005 15.7061L7.69005 15.7061L7.84277 15.7061ZM7.82812 17.377L7.6754 17.375V17.377H7.82812ZM7.82812 17.3818L7.98085 17.3838V17.3818H7.82812ZM7.85938 21.0869L7.70686 21.0948L7.71375 21.228L7.84663 21.2391L7.85938 21.0869ZM14.9883 23.0332L14.8995 23.1575L15.1419 23.3305L15.141 23.0327L14.9883 23.0332ZM15.0586 10.6641L15.2113 10.6663L15.2122 10.6029L15.168 10.5575L15.0586 10.6641ZM8.46484 7.91113L8.46902 7.75846L8.46803 7.75844L8.46484 7.91113ZM24.4199 6.0166L24.4278 6.16912C24.7731 6.15127 25.1181 6.13464 25.4012 6.19612L25.4336 6.04688L25.466 5.89763C25.1352 5.82579 24.7464 5.84679 24.412 5.86408L24.4199 6.0166ZM25.4336 6.04688L25.4012 6.19612C25.4776 6.21272 25.5312 6.23275 25.5738 6.25913C25.6152 6.28474 25.6534 6.32073 25.6925 6.37899L25.8193 6.29395L25.9462 6.2089C25.8865 6.11991 25.8182 6.05112 25.7345 5.99937C25.6521 5.94841 25.5622 5.91853 25.466 5.89763L25.4336 6.04688ZM25.8193 6.29395L25.6692 6.32219C25.7326 6.65892 25.7869 6.98382 25.7995 7.31538L25.9521 7.30957L26.1048 7.30376C26.0912 6.94811 26.0332 6.60439 25.9694 6.2657L25.8193 6.29395ZM25.9521 7.30957L25.7995 7.31541C25.8272 8.03952 25.8203 8.76955 25.8131 9.50241L25.9658 9.50391L26.1185 9.5054C26.1257 8.77373 26.1328 8.03638 26.1048 7.30373L25.9521 7.30957ZM25.9658 9.50391L25.8131 9.50241C25.8098 9.83468 25.8072 10.1674 25.8072 10.499H25.96H26.1127C26.1127 10.1689 26.1153 9.83736 26.1185 9.5054L25.9658 9.50391ZM25.96 10.499L25.8072 10.499L25.8063 16.8076L25.959 16.8076L26.1117 16.8076L26.1127 10.499L25.96 10.499ZM25.959 16.8076L25.8063 16.8078C25.8065 17.0166 25.8134 17.3672 25.8209 17.7908L25.9736 17.7881L26.1263 17.7854C26.1187 17.3596 26.1119 17.0129 26.1117 16.8074L25.959 16.8076ZM25.9736 17.7881L25.8209 17.7908C25.8341 18.5344 25.8514 19.5088 25.8482 20.3636C25.8466 20.7911 25.8399 21.1873 25.8251 21.5089C25.8101 21.8358 25.7872 22.0711 25.7574 22.1864L25.9053 22.2246L26.0531 22.2628C26.0921 22.112 26.1154 21.8454 26.1303 21.5229C26.1453 21.1951 26.1521 20.794 26.1537 20.3648C26.1569 19.5061 26.1395 18.5283 26.1263 17.7854L25.9736 17.7881ZM25.9053 22.2246L25.7574 22.1864C25.7135 22.3565 25.6492 22.4727 25.5628 22.568C25.474 22.666 25.3554 22.7491 25.1897 22.8441L25.2656 22.9766L25.3416 23.1091C25.5159 23.0091 25.6678 22.907 25.7891 22.7732C25.9129 22.6366 25.9985 22.4744 26.0531 22.2628L25.9053 22.2246ZM25.2656 22.9766L25.2469 22.825C24.9521 22.8614 24.6429 22.8689 24.3278 22.8756L24.3311 23.0283L24.3343 23.181C24.6471 23.1743 24.9717 23.1668 25.2843 23.1281L25.2656 22.9766ZM24.3311 23.0283L24.3278 22.8756C24.1641 22.8792 23.9977 22.8824 23.8343 22.8904L23.8418 23.043L23.8493 23.1955C24.0075 23.1877 24.1693 23.1846 24.3343 23.181L24.3311 23.0283ZM23.8418 23.043L23.8343 22.8904C22.3193 22.9653 20.6945 23.1161 19.2753 23.7543L19.3379 23.8936L19.4005 24.0328C20.7627 23.4204 22.3361 23.2703 23.8493 23.1955L23.8418 23.043ZM19.3379 23.8936L19.2753 23.7543C18.8978 23.924 18.5132 24.126 18.1738 24.3773L18.2646 24.5L18.3555 24.6227C18.6705 24.3895 19.0334 24.1979 19.4005 24.0328L19.3379 23.8936ZM18.2646 24.5L18.1738 24.3772C17.9981 24.5073 17.8042 24.6861 17.6065 24.8681L17.71 24.9805L17.8134 25.0928C18.0151 24.9071 18.1958 24.741 18.3555 24.6228L18.2646 24.5ZM17.71 24.9805L17.6065 24.8681C17.3559 25.099 17.0947 25.3391 16.8301 25.526C16.5633 25.7144 16.3125 25.8342 16.0845 25.8465L16.0928 25.999L16.101 26.1515C16.416 26.1344 16.7247 25.9743 17.0063 25.7755C17.29 25.5752 17.5659 25.3208 17.8134 25.0928L17.71 24.9805ZM16.0928 25.999L16.0846 25.8465C15.817 25.8608 15.5444 25.757 15.2616 25.5787C14.9787 25.4002 14.7026 25.1585 14.4269 24.9165L14.3262 25.0312L14.2254 25.146C14.4971 25.3845 14.7916 25.6434 15.0987 25.837C15.4059 26.0308 15.7428 26.1706 16.1009 26.1515L16.0928 25.999ZM14.3262 25.0312L14.4269 24.9165C14.1694 24.6904 13.9087 24.461 13.6571 24.3064L13.5771 24.4365L13.4972 24.5667C13.7221 24.7048 13.9618 24.9147 14.2254 25.146L14.3262 25.0312ZM13.5771 24.4365L13.6571 24.3064C13.066 23.9433 12.4006 23.6659 11.7446 23.457L11.6982 23.6025L11.6519 23.7481C12.2917 23.9518 12.9329 24.22 13.4972 24.5667L13.5771 24.4365ZM11.6982 23.6025L11.7445 23.457C10.6608 23.1122 9.51538 22.9364 8.3848 22.871L8.37598 23.0234L8.36716 23.1759C9.47896 23.2402 10.5981 23.4128 11.6519 23.7481L11.6982 23.6025ZM8.37598 23.0234L8.3849 22.871C8.21025 22.8608 8.03122 22.8614 7.85692 22.8619L7.85742 23.0146L7.85792 23.1674C8.03395 23.1668 8.20343 23.1663 8.36705 23.1759L8.37598 23.0234ZM7.85742 23.0146L7.85692 22.8619C7.5285 22.863 7.21557 22.8627 6.92757 22.8009L6.89551 22.9502L6.86344 23.0995C7.18916 23.1695 7.53559 23.1684 7.85793 23.1674L7.85742 23.0146ZM6.89551 22.9502L6.92778 22.8009C6.69991 22.7517 6.55214 22.6415 6.35458 22.4712L6.25488 22.5869L6.15519 22.7026C6.35969 22.8788 6.55637 23.0331 6.86323 23.0995L6.89551 22.9502ZM6.25488 22.5869L6.39506 22.5263C6.25964 22.2131 6.21445 21.8163 6.19648 21.4524L6.04395 21.46L5.89141 21.4675C5.90964 21.8367 5.95606 22.2806 6.1147 22.6475L6.25488 22.5869ZM6.04395 21.46L6.19648 21.4524C6.16435 20.8024 6.17256 20.144 6.18103 19.4824L6.02832 19.4805L5.87561 19.4785C5.86716 20.1385 5.85873 20.8064 5.89141 21.4675L6.04395 21.46ZM6.02832 19.4805L6.18103 19.4824C6.18481 19.1893 6.18868 18.8953 6.18886 18.6026L6.03613 18.6025L5.88341 18.6024C5.88323 18.8929 5.8794 19.185 5.87561 19.4785L6.02832 19.4805ZM6.03613 18.6025L6.18886 18.6026L6.19276 13.0226L6.04004 13.0225L5.88732 13.0224L5.88341 18.6024L6.03613 18.6025ZM6.04004 13.0225L6.19276 13.0223L6.18788 8.8006L6.03516 8.80078L5.88243 8.80096L5.88732 13.0226L6.04004 13.0225ZM6.03516 8.80078L6.18788 8.80068C6.18776 8.61305 6.18047 8.40992 6.17213 8.20284L6.01953 8.20898L5.86693 8.21513C5.87527 8.42228 5.88232 8.61995 5.88243 8.80088L6.03516 8.80078ZM6.01953 8.20898L6.17213 8.20287C6.14936 7.63468 6.1269 7.04895 6.24538 6.59735L6.09766 6.55859L5.94993 6.51984C5.81744 7.02484 5.84474 7.66137 5.86693 8.2151L6.01953 8.20898ZM6.09766 6.55859L6.24538 6.59737C6.29853 6.39485 6.40924 6.30548 6.62938 6.16882L6.54883 6.03906L6.46828 5.90931C6.23613 6.05342 6.03474 6.19673 5.94994 6.51982L6.09766 6.55859ZM6.54883 6.03906L6.55844 6.19148C9.0218 6.03612 11.7101 6.53486 13.8677 7.70267L13.9404 7.56836L14.0131 7.43405C11.7986 6.23542 9.05184 5.72817 6.53922 5.88664L6.54883 6.03906ZM13.9404 7.56836L13.8677 7.70267C14.5831 8.08984 15.2295 8.56463 15.892 9.05175L15.9824 8.92871L16.0729 8.80567C15.4131 8.32051 14.75 7.83289 14.0131 7.43405L13.9404 7.56836ZM15.9824 8.92871L16.0721 9.05233C16.4438 8.78267 16.816 8.51452 17.1959 8.26195L17.1113 8.13477L17.0268 8.00758C16.6411 8.264 16.2643 8.53549 15.8927 8.8051L15.9824 8.92871ZM17.1113 8.13477L17.1959 8.26195C19.2265 6.91195 21.6486 6.24254 24.1062 6.18295L24.1025 6.03027L24.0988 5.8776C21.5919 5.93838 19.112 6.62134 17.0268 8.00758L17.1113 8.13477ZM24.1025 6.03027L24.1063 6.18295C24.2099 6.18043 24.3188 6.17476 24.4278 6.16912L24.4199 6.0166L24.412 5.86408C24.3021 5.86977 24.1975 5.87519 24.0988 5.8776L24.1025 6.03027ZM23.1406 8.00293L23.1394 7.85021C22.8529 7.85251 22.5126 7.83283 22.2021 7.87295L22.2217 8.02441L22.2412 8.17588C22.5275 8.13889 22.8255 8.15818 23.1418 8.15565L23.1406 8.00293ZM22.2217 8.02441L22.2083 7.87228C21.1762 7.96307 19.9972 8.19221 18.8989 8.5998C17.8019 9.0069 16.775 9.59593 16.059 10.413L16.1738 10.5137L16.2887 10.6143C16.9593 9.84897 17.9353 9.28318 19.0051 8.88617C20.0736 8.48965 21.2252 8.26538 22.2351 8.17655L22.2217 8.02441ZM16.1738 10.5137L16.0585 10.4135C15.9976 10.4837 15.9392 10.5556 15.883 10.6283L16.0039 10.7217L16.1248 10.815C16.1779 10.7462 16.2326 10.6789 16.2891 10.6138L16.1738 10.5137ZM16.0039 10.7217L15.8512 10.7216L15.8473 23.1464L16 23.1465L16.1527 23.1465L16.1566 10.7217L16.0039 10.7217ZM16 23.1465L16.0882 23.2712C16.3183 23.1084 16.5385 22.9461 16.7671 22.7916L16.6816 22.665L16.5961 22.5385C16.3642 22.6952 16.1351 22.8639 15.9118 23.0218L16 23.1465ZM16.6816 22.665L16.7584 22.7971C18.6304 21.7091 20.9802 21.5178 23.161 21.3652L23.1504 21.2129L23.1397 21.0605C20.9718 21.2122 18.5485 21.4034 16.6049 22.533L16.6816 22.665ZM23.1504 21.2129L23.3031 21.2129C23.3032 16.815 23.3634 12.402 23.2933 8.0005L23.1406 8.00293L22.9879 8.00536C23.0579 12.4038 22.9978 16.8092 22.9977 21.2129L23.1504 21.2129ZM7.86133 7.91504L7.70865 7.91115C7.6618 9.75213 7.67236 11.5996 7.68224 13.4412L7.83496 13.4404L7.98768 13.4396C7.9778 11.5971 7.96728 9.75438 8.014 7.91893L7.86133 7.91504ZM7.83496 13.4404L7.68224 13.4413C7.68632 14.1967 7.68993 14.9522 7.69005 15.7061L7.84277 15.7061L7.9955 15.706C7.99538 14.9513 7.99176 14.1951 7.98768 13.4396L7.83496 13.4404ZM7.84277 15.7061L7.69005 15.7061C7.69017 16.2589 7.68269 16.8156 7.67541 17.375L7.82812 17.377L7.98084 17.3789C7.98811 16.8201 7.99561 16.2613 7.9955 15.706L7.84277 15.7061ZM7.82812 17.377H7.6754V17.3818H7.82812H7.98085V17.377H7.82812ZM7.82812 17.3818L7.67541 17.3799C7.65939 18.6165 7.64325 19.8656 7.70686 21.0948L7.85938 21.0869L8.01189 21.079C7.94888 19.8614 7.96479 18.6222 7.98084 17.3838L7.82812 17.3818ZM7.85938 21.0869L7.84663 21.2391C10.3652 21.4501 12.8458 21.6912 14.8995 23.1575L14.9883 23.0332L15.077 22.9089C12.9448 21.3866 10.3787 21.1447 7.87212 20.9347L7.85938 21.0869ZM14.9883 23.0332L15.141 23.0327C15.1286 18.9103 15.152 14.7881 15.2113 10.6663L15.0586 10.6641L14.9059 10.6619C14.8465 14.7854 14.8232 18.9095 14.8356 23.0337L14.9883 23.0332ZM15.0586 10.6641L15.168 10.5575C13.4915 8.83542 10.8772 7.82432 8.46902 7.75847L8.46484 7.91113L8.46067 8.0638C10.8006 8.12779 13.3354 9.11302 14.9492 10.7706L15.0586 10.6641ZM8.46484 7.91113L8.46803 7.75844C8.2641 7.75419 8.05966 7.75595 7.85649 7.76239L7.86133 7.91504L7.86617 8.06769C8.06465 8.06139 8.2637 8.0597 8.46166 8.06382L8.46484 7.91113Z" fill="#010101"/>
</svg>
