<svg aria-hidden="true" style="position: absolute; width: 0; height: 0; overflow: hidden;" version="1.1" xmlns="http://www.w3.org/2000/svg" xmlns:xlink="http://www.w3.org/1999/xlink">
<defs>
<symbol id="icon-menu-alt-right" viewBox="0 0 32 32">
<path d="M5.333 8h21.333v2.667h-21.333v-2.667zM10.667 14.667h16v2.667h-16v-2.667zM17.333 21.333h9.333v2.667h-9.333v-2.667z"></path>
</symbol>
<symbol id="icon-AlternateFalse" viewBox="0 0 74 32">
<path d="M2.14 16.698c-0.001 0.056-0.001 0.111-0.002 0.167 0.001-0.055 0.001-0.109 0.002-0.163v-0.003z"></path>
<path d="M13.714 8.552c0.237-0.013 0.492-0.026 0.706 0.022 0.12 0.027 0.201 0.071 0.269 0.177 0.044 0.242 0.084 0.482 0.093 0.728 0.019 0.522 0.015 1.048 0.010 1.573-0.002 0.238-0.005 0.476-0.005 0.714v4.524c0 0.148 0.004 0.398 0.009 0.703 0.018 1.066 0.049 2.799-0.047 3.181-0.069 0.274-0.209 0.4-0.446 0.54-0.212 0.027-0.433 0.032-0.652 0.037-0.115 0.003-0.229 0.005-0.341 0.010-1.056 0.054-2.172 0.162-3.142 0.611-0.26 0.12-0.52 0.261-0.748 0.435-0.117 0.089-0.248 0.213-0.388 0.345-0.347 0.329-0.749 0.709-1.128 0.73-0.437 0.024-0.85-0.35-1.232-0.694-0.182-0.164-0.357-0.321-0.523-0.426-0.403-0.254-0.859-0.451-1.311-0.599-0.746-0.244-1.535-0.369-2.318-0.416-0.118-0.007-0.24-0.006-0.362-0.006-0.227 0.001-0.457 0.002-0.671-0.046-0.186-0.041-0.307-0.136-0.447-0.26-0.103-0.244-0.134-0.545-0.147-0.808-0.023-0.47-0.017-0.946-0.011-1.42 0.003-0.21 0.005-0.42 0.005-0.629l0.003-4.001-0.003-3.028c-0-0.132-0.006-0.276-0.012-0.424-0.016-0.402-0.033-0.84 0.055-1.183 0.048-0.188 0.157-0.272 0.315-0.372 1.736-0.113 3.631 0.248 5.156 1.096 0.507 0.282 0.963 0.627 1.424 0.976 0.259-0.193 0.521-0.387 0.788-0.569 1.436-0.981 3.145-1.465 4.877-1.508 0.071-0.002 0.146-0.006 0.222-0.010zM13.514 9.911c-0.21 0.002-0.433-0.012-0.641 0.016-1.425 0.129-3.252 0.65-4.22 1.785-0.041 0.049-0.080 0.099-0.118 0.15l-0.003 8.909c0.158-0.115 0.315-0.234 0.476-0.345 1.331-0.795 2.996-0.932 4.513-1.041 0-3.156 0.042-6.318-0.007-9.473zM2.163 9.913c-0.033 1.318-0.025 2.642-0.019 3.963 0.003 0.541 0.006 1.083 0.006 1.623 0 0.397-0.005 0.798-0.010 1.199v0.003c-0.011 0.887-0.022 1.78 0.022 2.657 1.753 0.151 3.512 0.324 4.972 1.395-0.009-2.957 0.008-5.913 0.049-8.869-1.148-1.212-2.944-1.927-4.6-1.974-0.14-0.003-0.281-0.002-0.421 0.003z"></path>
<path d="M13.714 8.552v0zM14.421 8.574v0zM14.69 8.75l0.208-0.038-0.008-0.042-0.023-0.036-0.177 0.116zM14.783 9.478v0zM14.793 11.052v0zM14.788 16.289h-0.211v0l0.211-0zM14.797 16.992v0zM14.75 20.173v0zM14.304 20.712l0.027 0.21 0.043-0.006 0.038-0.022-0.107-0.182zM13.652 20.75v0zM13.311 20.76l-0.011-0.211h-0l0.011 0.211zM10.169 21.37v0zM9.421 21.805v0zM9.033 22.15v0zM7.905 22.88l0.012 0.211h0l-0.012-0.211zM6.673 22.185v0zM6.15 21.76v0zM4.84 21.161l0.066-0.201h-0l-0.066 0.201zM2.522 20.745l-0.013 0.211h0l0.013-0.211zM2.16 20.739v0zM1.489 20.694l-0.046 0.206 0 0 0.046-0.206zM1.042 20.434l-0.195 0.082 0.019 0.044 0.036 0.032 0.14-0.158zM0.895 19.625v0zM0.884 18.206v0zM0.889 17.576v0zM0.893 13.576l0.211 0v-0l-0.211 0zM0.889 10.548v0zM0.877 10.124v0zM0.932 8.94v0zM1.247 8.568l-0.014-0.211-0.054 0.004-0.046 0.029 0.114 0.178zM6.404 9.664v0zM7.828 10.64l-0.127 0.169 0.127 0.096 0.127-0.095-0.126-0.169zM8.616 10.070l0.119 0.174h0l-0.119-0.174zM13.492 8.562l0.005 0.211h0l-0.005-0.211zM13.514 9.911l0.211-0.003-0.003-0.21-0.21 0.002 0.002 0.211zM12.873 9.927l0.019 0.211 0.009-0.001-0.028-0.209zM8.654 11.711l-0.161-0.137-0.001 0.001 0.161 0.136zM8.535 11.861l-0.169-0.127-0.042 0.056-0 0.070 0.211 0zM8.533 20.77l-0.211-0-0 0.415 0.336-0.244-0.124-0.171zM9.008 20.424l-0.108-0.181-0.006 0.004-0.006 0.004 0.121 0.174zM13.521 19.384l0.015 0.211 0.196-0.014v-0.197h-0.211zM2.163 9.913l-0.007-0.211-0.199 0.007-0.005 0.2 0.211 0.005zM2.144 13.875v0zM2.15 15.499v0zM2.14 16.697l-0.211-0.003v0.003h0.211zM2.14 16.701l0.211 0.003v-0.003h-0.211zM2.162 19.358l-0.211 0.011 0.009 0.184 0.184 0.016 0.018-0.21zM7.134 20.753l-0.125 0.17 0.338 0.248-0.001-0.419-0.211 0.001zM7.183 11.884l0.211 0.003 0.001-0.086-0.059-0.062-0.153 0.145zM2.584 9.91l0.006-0.211-0.001-0-0.005 0.211zM13.714 8.552l0.011 0.211c0.244-0.013 0.469-0.023 0.649 0.017l0.092-0.413c-0.248-0.055-0.534-0.039-0.763-0.027l0.011 0.211zM14.421 8.574l-0.046 0.206c0.047 0.010 0.071 0.021 0.087 0.031 0.014 0.009 0.031 0.023 0.051 0.055l0.354-0.231c-0.048-0.074-0.106-0.135-0.179-0.181-0.071-0.045-0.147-0.070-0.221-0.086l-0.046 0.206zM14.69 8.75l-0.208 0.038c0.044 0.241 0.081 0.468 0.090 0.698l0.422-0.016c-0.010-0.263-0.052-0.515-0.096-0.758l-0.208 0.038zM14.783 9.478l-0.211 0.008c0.019 0.517 0.015 1.038 0.010 1.564l0.423 0.004c0.005-0.525 0.009-1.055-0.010-1.583l-0.211 0.008zM14.793 11.052l-0.211-0.002c-0.002 0.238-0.005 0.477-0.005 0.716h0.423c0-0.236 0.003-0.473 0.005-0.712l-0.211-0.002zM14.788 11.766h-0.211v4.524h0.423v-4.524h-0.211zM14.788 16.289l-0.211 0c0 0.151 0.004 0.402 0.009 0.706l0.423-0.007c-0.005-0.305-0.009-0.553-0.009-0.699l-0.211 0zM14.797 16.992l-0.211 0.004c0.009 0.533 0.021 1.231 0.019 1.842-0.001 0.306-0.006 0.588-0.016 0.817-0.011 0.236-0.026 0.395-0.044 0.466l0.41 0.103c0.030-0.12 0.046-0.321 0.057-0.55 0.011-0.237 0.015-0.526 0.016-0.834 0.002-0.617-0.010-1.319-0.019-1.851l-0.211 0.004zM14.75 20.173l-0.205-0.051c-0.027 0.109-0.066 0.177-0.113 0.232-0.051 0.058-0.123 0.111-0.235 0.177l0.107 0.182 0.107 0.182c0.125-0.074 0.242-0.154 0.338-0.262 0.098-0.112 0.165-0.243 0.206-0.408l-0.205-0.052zM14.304 20.712l-0.027-0.21c-0.199 0.025-0.409 0.031-0.63 0.036l0.009 0.423c0.217-0.005 0.449-0.010 0.674-0.039l-0.027-0.21zM13.652 20.75l-0.005-0.211c-0.113 0.003-0.231 0.005-0.347 0.010l0.011 0.211 0.011 0.211c0.108-0.005 0.219-0.007 0.335-0.010l-0.005-0.211zM13.311 20.76l-0.011-0.211c-1.058 0.054-2.209 0.163-3.22 0.63l0.177 0.384c0.93-0.43 2.009-0.538 3.064-0.591l-0.011-0.211zM10.169 21.37l-0.089-0.192c-0.267 0.123-0.543 0.272-0.788 0.459l0.256 0.336c0.211-0.161 0.457-0.295 0.709-0.411l-0.089-0.192zM9.421 21.805l-0.128-0.168c-0.128 0.097-0.268 0.23-0.405 0.359l0.291 0.307c0.142-0.134 0.264-0.249 0.37-0.33l-0.128-0.168zM9.033 22.15l-0.145-0.154c-0.176 0.166-0.353 0.334-0.531 0.463-0.181 0.131-0.335 0.202-0.463 0.209l0.024 0.422c0.251-0.014 0.487-0.143 0.688-0.289 0.204-0.148 0.402-0.335 0.573-0.498l-0.145-0.153zM7.905 22.88l-0.012-0.211c-0.154 0.008-0.321-0.052-0.51-0.175s-0.375-0.29-0.569-0.465l-0.283 0.314c0.188 0.17 0.4 0.361 0.622 0.506s0.481 0.258 0.763 0.243l-0.012-0.211zM6.673 22.185l0.142-0.157c-0.178-0.161-0.367-0.331-0.551-0.447l-0.226 0.357c0.148 0.093 0.309 0.237 0.494 0.404l0.142-0.157zM6.15 21.76l0.113-0.179c-0.421-0.266-0.894-0.469-1.358-0.621l-0.131 0.402c0.44 0.144 0.879 0.334 1.264 0.577l0.113-0.179zM4.84 21.161l0.066-0.201c-0.767-0.251-1.575-0.378-2.371-0.426l-0.013 0.211-0.013 0.211c0.769 0.046 1.54 0.168 2.264 0.405l0.066-0.201zM2.522 20.745l0.013-0.211c-0.126-0.008-0.255-0.007-0.376-0.006l0.001 0.211 0.001 0.211c0.124-0 0.239-0.001 0.349 0.006l0.013-0.211zM2.16 20.739l-0.001-0.211c-0.232 0.001-0.437 0.001-0.624-0.041l-0.091 0.413c0.241 0.053 0.495 0.051 0.717 0.051l-0.001-0.211zM1.489 20.694l0.046-0.206c-0.131-0.029-0.217-0.092-0.353-0.212l-0.28 0.316c0.145 0.128 0.299 0.254 0.541 0.308l0.046-0.206zM1.042 20.434l0.195-0.082c-0.087-0.207-0.118-0.477-0.131-0.736l-0.422 0.020c0.013 0.266 0.045 0.6 0.163 0.88l0.195-0.082zM0.895 19.625l0.211-0.010c-0.022-0.463-0.017-0.932-0.011-1.407l-0.423-0.005c-0.006 0.473-0.012 0.955 0.011 1.433l0.211-0.010zM0.884 18.206l0.211 0.003c0.003-0.21 0.005-0.421 0.005-0.632l-0.423-0c-0 0.208-0.002 0.417-0.005 0.627l0.211 0.003zM0.889 17.576l0.211 0 0.003-4.001-0.423-0-0.003 4.001 0.211 0zM0.893 13.576l0.211-0-0.003-3.028-0.423 0 0.003 3.028 0.211-0zM0.889 10.548l0.211-0c-0-0.137-0.006-0.285-0.012-0.432l-0.422 0.017c0.006 0.15 0.012 0.289 0.012 0.416l0.211-0zM0.877 10.124l0.211-0.008c-0.016-0.412-0.030-0.816 0.048-1.123l-0.41-0.104c-0.097 0.379-0.077 0.851-0.061 1.244l0.211-0.008zM0.932 8.94l0.205 0.052c0.027-0.106 0.075-0.152 0.224-0.247l-0.227-0.356c-0.167 0.106-0.337 0.227-0.406 0.498l0.205 0.052zM1.247 8.568l0.014 0.211c1.7-0.11 3.555 0.244 5.040 1.070l0.205-0.369c-1.565-0.871-3.502-1.237-5.273-1.123l0.014 0.211zM6.404 9.664l-0.103 0.185c0.492 0.273 0.936 0.609 1.399 0.959l0.255-0.337c-0.459-0.347-0.927-0.701-1.449-0.992l-0.103 0.185zM7.828 10.64l0.126 0.169c0.259-0.193 0.518-0.384 0.781-0.564l-0.238-0.349c-0.271 0.185-0.536 0.381-0.795 0.574l0.126 0.169zM8.616 10.070l0.119 0.174c1.398-0.955 3.066-1.429 4.763-1.472l-0.005-0.211-0.005-0.211c-1.767 0.044-3.517 0.538-4.991 1.545l0.119 0.175zM13.492 8.562l0.005 0.211c0.074-0.002 0.153-0.006 0.228-0.010l-0.023-0.422c-0.078 0.004-0.149 0.008-0.216 0.010l0.005 0.211zM13.514 9.911l-0.002-0.211c-0.19 0.002-0.442-0.012-0.667 0.018l0.028 0.21 0.028 0.209c0.191-0.025 0.384-0.012 0.615-0.014l-0.002-0.211zM12.873 9.927l-0.019-0.21c-0.728 0.066-1.561 0.232-2.337 0.528-0.775 0.296-1.509 0.726-2.024 1.33l0.322 0.274c0.453-0.531 1.116-0.928 1.853-1.209 0.735-0.28 1.529-0.439 2.225-0.502l-0.019-0.21zM8.654 11.711l-0.161-0.136c-0.044 0.053-0.086 0.106-0.126 0.159l0.338 0.254c0.037-0.049 0.073-0.096 0.111-0.14l-0.161-0.136zM8.535 11.861l-0.211-0-0.003 8.909 0.423 0 0.003-8.909-0.211-0zM8.533 20.77l0.124 0.171c0.163-0.119 0.313-0.233 0.472-0.343l-0.241-0.347c-0.163 0.113-0.326 0.237-0.479 0.348l0.124 0.171zM9.008 20.424l0.108 0.181c1.281-0.765 2.894-0.901 4.419-1.011l-0.015-0.211-0.015-0.211c-1.508 0.108-3.225 0.245-4.606 1.070l0.108 0.181zM13.521 19.384h0.211c0-3.152 0.042-6.319-0.007-9.476l-0.423 0.007c0.049 3.153 0.007 6.31 0.007 9.47h0.211zM2.163 9.913l-0.211-0.005c-0.033 1.322-0.026 2.649-0.019 3.969l0.423-0.002c-0.007-1.322-0.014-2.642 0.019-3.957l-0.211-0.005zM2.144 13.875l-0.211 0.001c0.003 0.542 0.006 1.082 0.006 1.622l0.423-0c-0-0.541-0.003-1.083-0.006-1.624l-0.211 0.001zM2.15 15.499l-0.211 0c0 0.396-0.005 0.795-0.010 1.196l0.423 0.005c0.005-0.401 0.010-0.802 0.010-1.201h-0.211zM2.14 16.697h-0.211v0.003h0.423v-0.003h-0.211zM2.14 16.701l-0.211-0.003c-0.011 0.886-0.022 1.785 0.022 2.67l0.422-0.021c-0.044-0.87-0.033-1.755-0.022-2.644l-0.211-0.003zM2.162 19.358l-0.018 0.21c1.761 0.152 3.46 0.324 4.865 1.355l0.25-0.341c-1.515-1.112-3.335-1.285-5.079-1.435l-0.018 0.211zM7.134 20.753l0.211-0.001c-0.009-2.955 0.008-5.911 0.049-8.865l-0.423-0.006c-0.041 2.957-0.058 5.915-0.049 8.873l0.211-0.001zM7.183 11.884l0.153-0.145c-1.191-1.257-3.042-1.992-4.747-2.040l-0.006 0.211-0.006 0.211c1.607 0.045 3.348 0.742 4.452 1.908l0.153-0.145zM2.584 9.91l0.005-0.211c-0.144-0.003-0.288-0.002-0.432 0.003l0.007 0.211 0.007 0.211c0.136-0.005 0.273-0.005 0.409-0.002l0.005-0.211z"></path>
<path d="M20.204 9.525c1.693-0.029 4.544-0.079 5.483 0.28 0.717 0.275 1.327 0.815 1.639 1.522 0.308 0.697 0.33 1.618 0.051 2.328-0.298 0.757-0.845 1.077-1.552 1.383 0.055 0.020 0.11 0.039 0.166 0.058 0.152 0.052 0.304 0.105 0.447 0.176 0.653 0.328 1.152 0.899 1.39 1.59 0.287 0.847 0.177 1.797-0.212 2.59-0.29 0.5-0.697 0.887-1.2 1.168-0.443 0.248-0.881 0.347-1.381 0.413-0.76 0.101-5.168 0.167-5.722-0.021-0.075-0.025-0.149-0.054-0.183-0.127-0.082-0.177-0.093-0.448-0.101-0.656l-0.003-0.057c-0.053-1.185-0.036-2.386-0.019-3.582 0.008-0.532 0.015-1.063 0.016-1.591 0.001-0.509-0.005-1.021-0.012-1.535-0.013-1.001-0.025-2.005 0.020-2.995 0.010-0.215 0.028-0.454 0.105-0.655 0.059-0.154 0.135-0.207 0.28-0.275 0.212-0.001 0.481-0.007 0.788-0.012zM24.436 15.957c-0.617-0.147-2.565-0.045-3.307-0.045l0.001 3.382c0.87 0.002 2.765 0.112 3.511-0.079 0.275-0.071 0.494-0.181 0.703-0.373 0.336-0.396 0.51-0.795 0.459-1.325-0.045-0.472-0.246-0.873-0.613-1.176-0.219-0.183-0.478-0.315-0.755-0.383zM21.744 11.24c-0.235 0.008-0.446 0.014-0.616 0.014l0.002 3.010c0.198 0.001 0.438 0.007 0.701 0.014 0.868 0.022 1.976 0.051 2.554-0.097 0.269-0.069 0.492-0.178 0.708-0.353 0.283-0.342 0.437-0.733 0.4-1.183-0.032-0.396-0.221-0.783-0.536-1.028-0.594-0.461-2.153-0.411-3.213-0.377z"></path>
<path d="M37.669 16.257c-0.326-2.443-2.571-4.16-5.014-3.833-2.441 0.326-4.156 2.569-3.831 5.010s2.567 4.157 5.008 3.834c2.443-0.324 4.161-2.568 3.836-5.011zM32.941 14.314c0.496-0.025 0.933-0.016 1.373 0.252 0.494 0.301 0.801 0.815 0.934 1.367 0.19 0.783 0.145 1.86-0.295 2.557-0.315 0.499-0.755 0.719-1.311 0.842-0.534 0.054-1.064 0.003-1.521-0.303-0.482-0.324-0.763-0.852-0.872-1.412-0.155-0.795-0.106-1.827 0.374-2.508 0.329-0.467 0.769-0.697 1.319-0.795z"></path>
<path d="M47.243 16.23c-0.337-2.443-2.594-4.147-5.036-3.803-2.432 0.343-4.128 2.589-3.792 5.022s2.577 4.135 5.011 3.806c2.444-0.331 4.154-2.583 3.817-5.025zM42.48 14.315c0.482-0.040 0.949-0.025 1.383 0.218 0.515 0.288 0.829 0.795 0.976 1.354 0.211 0.803 0.169 1.839-0.271 2.563-0.312 0.513-0.756 0.752-1.324 0.88-0.532 0.069-1.056 0.010-1.513-0.291-0.488-0.321-0.771-0.843-0.89-1.404-0.167-0.793-0.113-1.813 0.349-2.502 0.314-0.468 0.75-0.706 1.29-0.817z"></path>
<path d="M49.022 9.164c0.033-0.003 0.067-0.006 0.1-0.007 0.331-0.012 1.069-0.076 1.294 0.228 0.096 0.129 0.11 0.399 0.122 0.559 0.050 0.673 0.010 1.377 0.010 2.053l0.001 3.981c0.471-0.56 1.013-1.072 1.509-1.61 0.49-0.532 0.962-1.143 1.505-1.617 0.129-0.113 0.227-0.173 0.395-0.218 0.347-0.094 1.604-0.165 1.869 0.024 0.068 0.048 0.125 0.141 0.12 0.226-0.024 0.379-2.527 2.847-2.963 3.279 0.803 1.167 1.612 2.328 2.429 3.485 0.203 0.295 0.781 0.928 0.707 1.294-0.016 0.079-0.079 0.149-0.149 0.188-0.375 0.207-1.817 0.071-2.267-0.076-0.322-0.323-0.584-0.791-0.842-1.167l-1.566-2.284-0.749 0.651c-0.003 0.599 0.176 2.361-0.209 2.763-0.172 0.18-0.398 0.194-0.632 0.196-0.358 0.004-1.052 0.063-1.314-0.193-0.067-0.69-0.045-1.388-0.045-2.080l-0.001-2.957 0-4.051c0-0.72-0.026-1.451 0.008-2.17 0.005-0.097 0.007-0.18 0.065-0.263 0.138-0.199 0.388-0.203 0.606-0.233z"></path>
<path d="M64.249 12.453c0.473-0.010 1.413-0.115 1.839 0.061 0.159 0.066 0.232 0.229 0.303 0.378 0.303 0.631 0.501 1.358 0.744 2.017 0.424 1.146 0.88 2.28 1.31 3.424 0.25-0.645 1.975-5.455 2.258-5.695 0.139-0.117 0.402-0.143 0.574-0.148 0.364-0.011 1.044-0.091 1.319 0.163 0.070 0.164 0.060 0.254 0.020 0.429-0.141 0.613-0.442 1.251-0.662 1.842l-1.415 3.804-0.957 2.593c-0.192 0.523-0.362 1.083-0.611 1.581-0.139 0.277-0.308 0.537-0.52 0.764-0.508 0.545-1.174 0.779-1.906 0.804-0.314 0.011-0.853 0.069-1.095-0.155-0.155-0.313-0.168-1.042-0.068-1.38 0.097-0.328 0.816-0.266 1.106-0.429 0.467-0.262 0.594-0.779 0.714-1.26-0.375-1.133-3.197-8.063-3.169-8.454 0.012-0.17 0.092-0.243 0.216-0.341z"></path>
<path d="M59.614 12.42c0.237-0.036 0.497-0.026 0.737-0.024 0.957 0.010 2.027 0.211 2.716 0.931 0.317 0.331 0.547 0.831 0.513 1.297-0.006 0.079-0.028 0.193-0.096 0.241-0.344 0.243-1.281 0.195-1.69 0.14-0.362-0.049-0.334-0.291-0.557-0.556-0.246-0.292-0.606-0.435-0.98-0.462-0.417-0.030-0.944 0.105-1.254 0.398-0.137 0.129-0.282 0.462-0.259 0.648 0.096 0.813 2.386 0.917 3.044 1.083 0.559 0.141 1.134 0.35 1.58 0.726 0.424 0.357 0.615 0.843 0.658 1.386 0.053 0.67-0.142 1.312-0.587 1.819-0.773 0.881-1.898 1.14-3.018 1.222-0.861 0.029-1.787-0.089-2.562-0.486-0.562-0.289-1.069-0.74-1.256-1.362-0.077-0.254-0.128-0.552 0.007-0.793 0.391-0.307 1.461-0.187 1.936-0.169 0.16 0.244 0.258 0.53 0.477 0.732 0.369 0.34 0.913 0.443 1.401 0.419 0.399-0.020 0.823-0.133 1.090-0.45 0.147-0.175 0.233-0.399 0.211-0.629-0.088-0.921-2.358-0.918-3.060-1.080-0.507-0.117-1.025-0.323-1.435-0.648-0.433-0.344-0.709-0.806-0.762-1.36-0.058-0.676 0.15-1.348 0.581-1.872 0.65-0.788 1.586-1.056 2.566-1.152z"></path>
</symbol>
<symbol id="icon-x" viewBox="0 0 24 24">
<path d="M21.589 8.459l-5.657 5.656-5.656-5.656-1.885 1.885 5.656 5.656-5.656 5.656 1.885 1.885 5.656-5.656 5.657 5.656 1.885-1.885-5.656-5.656 5.656-5.656-1.885-1.885z"></path>
</symbol>
<symbol id="icon-arrow-left" viewBox="0 0 32 32">
<path d="M19.902 28.098l-9.813-9.813h21.911v-4.571h-21.911l9.813-9.813-3.232-3.232-15.33 15.33 15.33 15.33 3.232-3.232z"></path>
</symbol>
<symbol id="icon-arrow-right" viewBox="0 0 32 32">
<path d="M12.098 28.098l3.232 3.232 15.33-15.33-15.33-15.33-3.232 3.232 9.813 9.813h-21.911v4.571h21.911l-9.813 9.813z"></path>
</symbol>
<symbol id="icon-phone" viewBox="0 0 31 32">
<path d="M22.665 16.81c-0.119-0.119-0.26-0.213-0.415-0.278s-0.322-0.098-0.49-0.098c-0.168 0-0.334 0.033-0.49 0.098s-0.296 0.159-0.415 0.278l-2.040 2.040c-0.946-0.282-2.711-0.922-3.83-2.040s-1.759-2.884-2.040-3.83l2.040-2.040c0.119-0.119 0.213-0.26 0.278-0.415s0.098-0.322 0.098-0.49c0-0.168-0.033-0.335-0.098-0.49s-0.159-0.296-0.278-0.415l-5.12-5.12c-0.119-0.119-0.26-0.213-0.415-0.278s-0.322-0.098-0.49-0.098c-0.168 0-0.335 0.033-0.49 0.098s-0.296 0.159-0.415 0.278l-3.471 3.471c-0.486 0.486-0.76 1.155-0.75 1.837 0.029 1.823 0.512 8.154 5.501 13.143s11.32 5.471 13.144 5.501h0.036c0.676 0 1.315-0.266 1.798-0.75l3.471-3.471c0.119-0.119 0.213-0.26 0.278-0.415s0.098-0.322 0.098-0.49c0-0.168-0.033-0.334-0.098-0.49s-0.159-0.296-0.278-0.415l-5.12-5.121zM22.503 25.402c-1.597-0.027-7.063-0.456-11.357-4.751-4.308-4.308-4.726-9.793-4.751-11.359l2.566-2.566 3.31 3.31-1.655 1.655c-0.15 0.15-0.261 0.336-0.322 0.54s-0.070 0.42-0.026 0.628c0.031 0.147 0.782 3.638 2.907 5.763s5.615 2.876 5.763 2.907c0.208 0.045 0.424 0.036 0.628-0.024s0.39-0.172 0.539-0.323l1.656-1.655 3.31 3.31-2.568 2.566z"></path>
</symbol>
<symbol id="icon-map" viewBox="0 0 31 32">
<path d="M15.36 18.995c2.824 0 5.12-2.296 5.12-5.12s-2.296-5.12-5.12-5.12c-2.824 0-5.12 2.296-5.12 5.12s2.296 5.12 5.12 5.12zM15.36 11.315c1.412 0 2.56 1.148 2.56 2.56s-1.148 2.56-2.56 2.56-2.56-1.148-2.56-2.56c0-1.412 1.148-2.56 2.56-2.56z"></path>
<path d="M14.618 28.997c0.217 0.155 0.476 0.238 0.742 0.238s0.526-0.083 0.742-0.238c0.389-0.275 9.535-6.879 9.498-15.122 0-5.646-4.594-10.24-10.24-10.24s-10.24 4.594-10.24 10.234c-0.037 8.25 9.108 14.853 9.498 15.128zM15.36 6.195c4.236 0 7.68 3.444 7.68 7.686 0.027 5.681-5.617 10.781-7.68 12.454-2.062-1.674-7.707-6.776-7.68-12.461 0-4.235 3.444-7.68 7.68-7.68z"></path>
</symbol>
<symbol id="icon-envelope" viewBox="0 0 31 32">
<path d="M25.6 6.195h-20.48c-1.412 0-2.56 1.148-2.56 2.56v15.36c0 1.412 1.148 2.56 2.56 2.56h20.48c1.412 0 2.56-1.148 2.56-2.56v-15.36c0-1.412-1.148-2.56-2.56-2.56zM25.6 8.755v0.654l-10.24 7.965-10.24-7.964v-0.655h20.48zM5.12 24.115v-11.464l9.454 7.354c0.224 0.176 0.501 0.272 0.786 0.272s0.562-0.096 0.786-0.272l9.454-7.354 0.003 11.464h-20.483z"></path>
</symbol>
<symbol id="icon-left-arrow-alt" viewBox="0 0 31 32">
<path
d="M16.265 23.306l-5.495-5.495h12.27v-2.56h-12.27l5.495-5.495-1.81-1.81-8.585 8.585 8.585 8.585 1.81-1.81z"
    ></path>
</symbol>
<symbol id="icon-right-arrow-alt" viewBox="0 0 31 32">
<path
      d="M14.455 23.306l1.81 1.81 8.585-8.585-8.585-8.585-1.81 1.81 5.495 5.495h-12.27v2.56h12.27l-5.495 5.495z"
></path>
</symbol>
<symbol id="icon-reg" viewBox="0 0 21 32">
<path
d="M5.441 31.639l15.219-15.219-15.219-15.219-3.771 3.771 11.448 11.448-11.448 11.448 3.771 3.771z"
></path>
</symbol>
<symbol id="icon-Vector" viewBox="0 0 32 32">
<path d="M29.671 28.728l-0.943 0.943c-0.521 0.521-1.365 0.521-1.886 0l-10.842-10.842-10.842 10.842c-0.521 0.521-1.365 0.521-1.886 0l-0.943-0.943c-0.521-0.521-0.521-1.365 0-1.886l10.842-10.842-10.842-10.842c-0.521-0.521-0.521-1.365 0-1.886l0.943-0.943c0.521-0.521 1.365-0.521 1.886 0l10.842 10.842 10.842-10.842c0.521-0.521 1.365-0.521 1.886 0l0.943 0.943c0.521 0.521 0.521 1.365 0 1.886l-10.842 10.842 10.842 10.842c0.521 0.521 0.521 1.365 0 1.886z"></path>
<symbol id="icon-x" viewBox="0 0 24 24">
<path d="M21.589 8.459l-5.657 5.656-5.656-5.656-1.885 1.885 5.656 5.656-5.656 5.656 1.885 1.885 5.656-5.656 5.657 5.656 1.885-1.885-5.656-5.656 5.656-5.656-1.885-1.885z"></path>
</symbol>
<symbol id="icon-ac-down" viewBox="0 0 56 32">
<path d="M29.591 28.654c-0.879 0.879-2.303 0.879-3.182 0l-22.939-22.94c-0.879-0.879-0.879-2.303 0-3.182l1.061-1.061c0.879-0.879 2.303-0.879 3.182 0l20.288 20.288 20.288-20.288c0.879-0.879 2.303-0.879 3.182 0l1.061 1.061c0.878 0.879 0.878 2.303 0 3.182l-22.94 22.94z" fill="#0B0500"></path>
</symbol>
<symbol id="icon-arrow-up2" viewBox="0 0 32 32">
<path d="M27.414 12.586l-10-10c-0.781-0.781-2.047-0.781-2.828 0l-10 10c-0.781 0.781-0.781 2.047 0 2.828s2.047 0.781 2.828 0l6.586-6.586v19.172c0 1.105 0.895 2 2 2s2-0.895 2-2v-19.172l6.586 6.586c0.39 0.39 0.902 0.586 1.414 0.586s1.024-0.195 1.414-0.586c0.781-0.781 0.781-2.047 0-2.828z"></path>
</symbol>

</defs>
</svg>

