<!-- Generated by IcoMoon.io -->
<svg version="1.1" xmlns="http://www.w3.org/2000/svg" width="31" height="32" viewBox="0 0 31 32">
<path d="M15.36 18.995c2.824 0 5.12-2.296 5.12-5.12s-2.296-5.12-5.12-5.12c-2.824 0-5.12 2.296-5.12 5.12s2.296 5.12 5.12 5.12zM15.36 11.315c1.412 0 2.56 1.148 2.56 2.56s-1.148 2.56-2.56 2.56-2.56-1.148-2.56-2.56c0-1.412 1.148-2.56 2.56-2.56z"></path>
<path d="M14.618 28.997c0.217 0.155 0.476 0.238 0.742 0.238s0.526-0.083 0.742-0.238c0.389-0.275 9.535-6.879 9.498-15.122 0-5.646-4.594-10.24-10.24-10.24s-10.24 4.594-10.24 10.234c-0.037 8.25 9.108 14.853 9.498 15.128zM15.36 6.195c4.236 0 7.68 3.444 7.68 7.686 0.027 5.681-5.617 10.781-7.68 12.454-2.062-1.674-7.707-6.776-7.68-12.461 0-4.235 3.444-7.68 7.68-7.68z"></path>
</svg>
