<!-- Generated by IcoMoon.io -->
<svg version="1.1" xmlns="http://www.w3.org/2000/svg" width="31" height="32" viewBox="0 0 31 32">
<path d="M22.665 16.81c-0.119-0.119-0.26-0.213-0.415-0.278s-0.322-0.098-0.49-0.098c-0.168 0-0.334 0.033-0.49 0.098s-0.296 0.159-0.415 0.278l-2.040 2.040c-0.946-0.282-2.711-0.922-3.83-2.040s-1.759-2.884-2.040-3.83l2.040-2.040c0.119-0.119 0.213-0.26 0.278-0.415s0.098-0.322 0.098-0.49c0-0.168-0.033-0.335-0.098-0.49s-0.159-0.296-0.278-0.415l-5.12-5.12c-0.119-0.119-0.26-0.213-0.415-0.278s-0.322-0.098-0.49-0.098c-0.168 0-0.335 0.033-0.49 0.098s-0.296 0.159-0.415 0.278l-3.471 3.471c-0.486 0.486-0.76 1.155-0.75 1.837 0.029 1.823 0.512 8.154 5.501 13.143s11.32 5.471 13.144 5.501h0.036c0.676 0 1.315-0.266 1.798-0.75l3.471-3.471c0.119-0.119 0.213-0.26 0.278-0.415s0.098-0.322 0.098-0.49c0-0.168-0.033-0.334-0.098-0.49s-0.159-0.296-0.278-0.415l-5.12-5.121zM22.503 25.402c-1.597-0.027-7.063-0.456-11.357-4.751-4.308-4.308-4.726-9.793-4.751-11.359l2.566-2.566 3.31 3.31-1.655 1.655c-0.15 0.15-0.261 0.336-0.322 0.54s-0.070 0.42-0.026 0.628c0.031 0.147 0.782 3.638 2.907 5.763s5.615 2.876 5.763 2.907c0.208 0.045 0.424 0.036 0.628-0.024s0.39-0.172 0.539-0.323l1.656-1.655 3.31 3.31-2.568 2.566z"></path>
</svg>
